#!OML:ASF I:\Actors\actors\Patient Classification 2\Patient 1\Session 1\actor1.ASF
:FULLY-SPECIFIED
:DEGREES
459
root -0.683156 18.7809 5.27415 4.69213 -0.0711242 -1.77084
lowerback 7.14136 1.16407 -1.41622
upperback 1.71266 1.47397 1.15107
thorax -2.30045 0.742375 1.84882
lowerneck -16.3839 -3.90245 -4.27653
upperneck 32.1127 -5.2772 2.66015
head 13.8368 -2.44299 0.928412
rclavicle -1.594e-014 -2.18663e-015
rhumerus -1.31649 44.7581 -71.66
rradius 72.4294
rwrist 9.71222
rhand -17.0775 -43.6343
rfingers 7.12502
rthumb 9.16057 286.585
lclavicle -1.594e-014 -2.18663e-015
lhumerus 8.73122 -44.1557 76.9545
lradius 57.2566
lwrist -17.5242
lhand -22.6347 -38.9524
lfingers 7.12502
lthumb 3.79589 -9.00651
rfemur 0 0 0
rtibia 0
rfoot 0 0
rtoes 0
lfemur -9.353 -7.37912 -11.8779
ltibia 21.6648
lfoot -22.0696 15.5265
ltoes -54.2768
460
root -0.679291 18.7812 5.26304 4.73141 0.300921 -1.80734
lowerback 7.08609 0.931937 -1.15326
upperback 1.86195 1.1806 0.997804
thorax -2.09463 0.592349 1.57178
lowerneck -16.462 -3.77511 -4.14865
upperneck 32.0372 -5.18722 2.83771
head 13.818 -2.3645 0.990893
rclavicle 2.29418e-015 5.76165e-016
rhumerus -1.10375 44.3496 -71.5432
rradius 74.3524
rwrist 7.39416
rhand -15.481 -44.4143
rfingers 7.12502
rthumb 10.7008 285.878
lclavicle 2.29418e-015 5.76165e-016
lhumerus 9.12989 -43.399 76.8864
lradius 55.7653
lwrist -17.8278
lhand -23.0012 -40.9141
lfingers 7.12502
lthumb 3.44197 -10.9622
rfemur 0 0 0
rtibia 0
rfoot 0 0
rtoes 0
lfemur -9.55533 -7.48692 -11.7918
ltibia 21.6987
lfoot -21.8458 15.2958
ltoes -54.2161
461
root -0.675201 18.7821 5.25298 4.75335 0.623571 -1.79014
lowerback 7.01771 0.690769 -0.920464
upperback 2.01795 0.872227 0.809206
thorax -1.87838 0.435828 1.27557
lowerneck -16.4972 -3.61363 -3.88097
upperneck 31.9383 -5.03498 2.84741
head 13.7662 -2.26592 0.973393
rclavicle -7.7526e-015 -3.47873e-016
rhumerus -0.869128 43.9609 -71.5128
rradius 75.9533
rwrist 6.18447
rhand -14.2338 -44.9053
rfingers 7.12502
rthumb 11.9037 285.453
lclavicle -7.7526e-015 -3.47873e-016
lhumerus 9.36308 -42.6366 76.6675
lradius 54.7938
lwrist -17.7661
lhand -22.7798 -42.3052
lfingers 7.12502
lthumb 3.65576 -12.3568
rfemur 0 0 0
rtibia 0
rfoot 0 0
rtoes 0
lfemur -9.71202 -7.66206 -11.778
ltibia 21.7248
lfoot -21.7288 15.1454
ltoes -54.1297
462
root -0.67136 18.7832 5.24511 4.77389 0.819695 -1.75582
lowerback 6.8798 0.489582 -0.739817
upperback 2.18094 0.613792 0.622186
thorax -1.62252 0.305004 1.00534
lowerneck -16.4206 -3.42657 -3.5363
upperneck 31.7352 -4.82861 2.73826
head 13.637 -2.15292 0.905769
rclavicle -4.14963e-015 -1.19271e-015
rhumerus -0.585066 43.6482 -71.5541
rradius 77.2184
rwrist 5.68297
rhand -13.5571 -45.2941
rfingers 7.12502
rthumb 12.5561 285.103
lclavicle -4.14963e-015 -1.19271e-015
lhumerus 9.57839 -42.0791 76.1621
lradius 54.3556
lwrist -17.2427
lhand -22.3766 -42.9901
lfingers 7.12502
lthumb 4.04514 -13.0487
rfemur 0 0 0
rtibia 0
rfoot 0 0
rtoes 0
lfemur -9.82345 -7.71404 -11.8011
ltibia 21.7326
lfoot -21.6131 15.0258
ltoes -54.1543
463
root -0.668022 18.7855 5.23926 4.84426 0.876022 -1.70366
lowerback 6.68583 0.350876 -0.61387
upperback 2.30257 0.435431 0.456442
thorax -1.38338 0.21508 0.780061
lowerneck -16.3386 -3.24243 -3.28493
upperneck 31.634 -4.62154 2.6906
head 13.5574 -2.0418 0.878867
rclavicle -1.73937e-016 -2.38542e-015
rhumerus -0.324339 43.3864 -71.7443
rradius 78.0755
rwrist 5.34207
rhand -13.4006 -45.0461
rfingers 7.12502
rthumb 12.7071 285.36
lclavicle -1.73937e-016 -2.38542e-015
lhumerus 9.63796 -41.7089 75.5348
lradius 54.468
lwrist -15.828
lhand -21.9022 -42.9592
lfingers 7.12502
lthumb 4.50321 -13.0271
rfemur 0 0 0
rtibia 0
rfoot 0 0
rtoes 0
lfemur -9.94351 -7.6095 -11.8516
ltibia 21.7251
lfoot -21.498 14.9018
ltoes -54.2043
464
root -0.665635 18.7883 5.23345 4.92103 0.803074 -1.67057
lowerback 6.55636 0.296972 -0.556975
upperback 2.38377 0.3665 0.374478
thorax -1.22586 0.180229 0.670003
lowerneck -16.3793 -3.12689 -3.21964
upperneck 31.7141 -4.46213 2.65342
head 13.5914 -1.96925 0.878929
rclavicle -4.96962e-016 -4.57205e-015
rhumerus -0.0796059 43.1372 -71.9989
rradius 78.3476
rwrist 5.43347
rhand -13.1407 -44.3649
rfingers 7.12502
rthumb 12.9576 286.057
lclavicle -4.96962e-016 -4.57205e-015
lhumerus 9.45106 -41.3529 75.0747
lradius 55.1752
lwrist -13.5958
lhand -20.9207 -42.2441
lfingers 7.12502
lthumb 5.45091 -12.3342
rfemur 0 0 0
rtibia 0
rfoot 0 0
rtoes 0
lfemur -10.0305 -7.52585 -11.8892
ltibia 21.7051
lfoot -21.4815 14.9292
ltoes -54.2422
465
root -0.665234 18.7898 5.22761 4.95565 0.616084 -1.68755
lowerback 6.57057 0.338596 -0.568405
upperback 2.40309 0.421005 0.379076
thorax -1.21485 0.207235 0.677048
lowerneck -16.4086 -3.0884 -3.16693
upperneck 31.8472 -4.36525 2.47633
head 13.6449 -1.94384 0.815723
rclavicle 1.73937e-015 2.98177e-015
rhumerus 0.0769294 42.99 -72.3117
rradius 77.923
rwrist 6.21271
rhand -13.2046 -43.7997
rfingers 7.12502
rthumb 12.896 286.619
lclavicle 1.73937e-015 2.98177e-015
lhumerus 9.0616 -41.0531 74.7211
lradius 56.5635
lwrist -10.8579
lhand -19.0152 -40.817
lfingers 7.12502
lthumb 7.2905 -10.9626
rfemur 0 0 0
rtibia 0
rfoot 0 0
rtoes 0
lfemur -10.0188 -7.55533 -11.8786
ltibia 21.6561
lfoot -21.5706 15.0976
ltoes -54.1638
466
root -0.666622 18.79 5.22369 4.94511 0.312298 -1.67494
lowerback 6.7466 0.485232 -0.662754
upperback 2.34629 0.609259 0.407402
thorax -1.37526 0.301495 0.743313
lowerneck -16.4078 -3.09849 -3.12358
upperneck 32.0109 -4.33944 2.30486
head 13.7087 -1.94941 0.744921
rclavicle -5.04416e-015 -4.96962e-015
rhumerus 0.143867 42.9834 -72.636
rradius 76.7973
rwrist 7.42117
rhand -14.1234 -43.2185
rfingers 7.12502
rthumb 12.0101 287.146
lclavicle -5.04416e-015 -4.96962e-015
lhumerus 8.59695 -40.9612 74.268
lradius 58.5126
lwrist -7.7831
lhand -16.1278 -38.7613
lfingers 7.12502
lthumb 10.0769 -9.02257
rfemur 0 0 0
rtibia 0
rfoot 0 0
rtoes 0
lfemur -9.89577 -7.58529 -11.9158
ltibia 21.5823
lfoot -21.741 15.2949
ltoes -53.9445
467
root -0.670596 18.7902 5.22231 4.93038 -0.147859 -1.60156
lowerback 6.99 0.746194 -0.890234
upperback 2.24606 0.939951 0.462713
thorax -1.62386 0.467306 0.898117
lowerneck -16.3958 -3.16846 -3.26568
upperneck 32.1648 -4.397 2.29549
head 13.7793 -1.99129 0.756753
rclavicle 1.77415e-014 6.65929e-015
rhumerus 0.26627 42.8649 -72.8975
rradius 74.9704
rwrist 9.61989
rhand -14.6006 -42.1656
rfingers 7.12502
rthumb 11.5499 288.173
lclavicle 1.77415e-014 6.65929e-015
lhumerus 8.2186 -41.0894 73.6553
lradius 60.8217
lwrist -4.52777
lhand -12.34 -36.2175
lfingers 7.12502
lthumb 13.7294 -6.69041
rfemur 0 0 0
rtibia 0
rfoot 0 0
rtoes 0
lfemur -9.71572 -7.5105 -12.0354
ltibia 21.51
lfoot -21.9737 15.5765
ltoes -53.8124
468
root -0.676218 18.7908 5.22168 4.93217 -0.734699 -1.5671
lowerback 7.22546 1.06042 -1.17086
upperback 2.12083 1.33713 0.555028
thorax -1.90085 0.667209 1.11186
lowerneck -16.3651 -3.27115 -3.43663
upperneck 32.3088 -4.50024 2.30405
head 13.8451 -2.05435 0.773262
rclavicle -4.79568e-015 -4.57205e-015
rhumerus 0.411506 42.7554 -73.218
rradius 72.6994
rwrist 12.479
rhand -15.1184 -40.5808
rfingers 7.12502
rthumb 11.0505 289.73
lclavicle -4.79568e-015 -4.57205e-015
lhumerus 7.92522 -41.2453 72.9225
lradius 63.2978
lwrist -1.47638
lhand -7.83404 -33.464
lfingers 7.12502
lthumb 18.0685 -4.28331
rfemur 0 0 0
rtibia 0
rfoot 0 0
rtoes 0
lfemur -9.52171 -7.3777 -12.1164
ltibia 21.4483
lfoot -22.2395 15.9464
ltoes -53.787
469
root -0.673282 18.7911 5.21618 4.96757 -1.32321 -1.55108
lowerback 7.51078 1.35042 -1.3333
upperback 1.96945 1.70832 0.626585
thorax -2.23267 0.855219 1.23503
lowerneck -16.4204 -3.37939 -3.57264
upperneck 32.4854 -4.61972 2.30605
head 13.9441 -2.12013 0.776926
rclavicle -6.27414e-015 -2.43511e-015
rhumerus 0.509919 43.0917 -73.5229
rradius 70.3986
rwrist 14.3321
rhand -17.548 -39.0759
rfingers 7.12502
rthumb 8.70657 291.124
lclavicle -6.27414e-015 -2.43511e-015
lhumerus 7.72703 -41.3137 72.053
lradius 65.7444
lwrist 1.09646
lhand -3.01753 -31.1033
lfingers 7.12502
lthumb 22.6971 -2.41812
rfemur 0 0 0
rtibia 0
rfoot 0 0
rtoes 0
lfemur -9.3938 -7.42379 -12.2119
ltibia 21.3995
lfoot -22.54 16.4917
ltoes -53.7282
